#!OML:ASF H:\Terrain\Patient Classification 1\Walking\steve\steve.ASF
:FULLY-SPECIFIED
:DEGREES
78
root 8.14453 15.3984 -21.0073 8.34523 -7.82747 -5.60338
lowerback -1.08706 4.85915 3.99213
upperback -3.19617 6.51456 0.365531
thorax -2.28496 3.1695 -1.87975
lowerneck -10.7522 -2.01905 -2.86264
upperneck 14.3184 -3.18621 5.83828
head 6.25381 -1.23756 2.0564
rclavicle -3.14825e-014 -4.77083e-015
rhumerus -22.6427 8.12575 -83.6883
rradius 62.6994
rwrist -2.90548
rhand -26.6831 -32.6697
rfingers 7.12502
rthumb -0.114045 -62.6494
lclavicle -3.14825e-014 -4.77083e-015
lhumerus -61.5561 22.1338 55.0687
lradius 4.99144
lwrist -27.7302
lhand -26.7115 -12.2381
lfingers 7.12502
lthumb -0.141494 17.7416
rfemur 10.2158 4.31005 26.7325
rtibia 26.4444
rfoot 8.20361 14.6559
rtoes 11.282
lfemur -42.6364 2.03409 -14.0833
ltibia 28.845
lfoot -3.8338 6.06619
ltoes -7.7967
79
root 8.15411 15.3816 -20.7396 8.30998 -7.53968 -5.12203
lowerback -1.19464 4.79175 3.32884
upperback -3.19052 6.41407 0.208587
thorax -2.27634 3.13337 -1.66884
lowerneck -11.4105 -2.18424 -2.55934
upperneck 14.9021 -3.4385 5.5552
head 6.55575 -1.34651 1.89068
rclavicle 2.24254e-015 3.97569e-016
rhumerus -23.6473 7.36745 -83.7512
rradius 63.2977
rwrist -2.97567
rhand -26.2642 -33.4008
rfingers 7.12502
rthumb 0.290561 -63.3803
lclavicle 2.24254e-015 3.97569e-016
lhumerus -60.7563 22.3551 55.2843
lradius 4.35222
lwrist -28.5681
lhand -27.071 -12.0458
lfingers 7.12502
lthumb -0.488678 17.9334
rfemur 8.83496 4.62161 26.3375
rtibia 30.1653
rfoot 11.6371 11.0977
rtoes 10.6325
lfemur -42.8588 1.80084 -14.794
ltibia 30.7109
lfoot -3.39761 5.96726
ltoes -7.14218
80
root 8.16605 15.3887 -20.4727 8.11336 -7.28174 -4.52512
lowerback -1.09828 4.69817 2.60355
upperback -3.16627 6.28566 0.0063359
thorax -2.36405 3.08237 -1.4875
lowerneck -11.6009 -2.27253 -2.51767
upperneck 15.0385 -3.61017 5.78173
head 6.64391 -1.40295 1.93979
rclavicle -4.66585e-014 -1.03368e-014
rhumerus -24.9505 6.7776 -83.9585
rradius 63.8861
rwrist -3.12379
rhand -26.4155 -34.6861
rfingers 7.12502
rthumb 0.144424 -64.6658
lclavicle -4.66585e-014 -1.03368e-014
lhumerus -59.8448 22.693 55.487
lradius 3.66991
lwrist -29.0705
lhand -26.8281 -12.4318
lfingers 7.12502
lthumb -0.254068 17.5478
rfemur 7.31641 4.71818 25.7173
rtibia 34.0046
rfoot 15.0515 7.30292
rtoes 10.914
lfemur -42.7689 1.78303 -15.8274
ltibia 32.4687
lfoot -3.1781 5.07242
ltoes -9.07054
81
root 8.18197 15.4123 -20.2094 7.88281 -7.10807 -3.99349
lowerback -0.804848 4.65374 2.03366
upperback -3.26964 6.22902 -0.186017
thorax -2.67519 3.05981 -1.40496
lowerneck -11.3062 -2.38643 -2.60002
upperneck 14.9267 -3.78482 5.99496
head 6.57045 -1.48106 2.00764
rclavicle 1.78658e-014 -5.56597e-015
rhumerus -26.7372 6.38643 -84.2378
rradius 64.5816
rwrist -3.63834
rhand -27.3052 -36.8231
rfingers 7.12502
rthumb -0.714852 -66.8017
lclavicle 1.78658e-014 -5.56597e-015
lhumerus -59.5135 22.7342 55.5739
lradius 3.93571
lwrist -29.2039
lhand -26.2203 -12.4008
lfingers 7.12502
lthumb 0.332937 17.5787
rfemur 5.51239 4.52054 25.0959
rtibia 37.8115
rfoot 17.8639 5.85565
rtoes 2.70933
lfemur -42.4727 1.80281 -16.799
ltibia 34.0753
lfoot -3.48709 3.83208
ltoes -8.60604
82
root 8.20221 15.4309 -19.9505 7.63168 -7.02663 -3.78894
lowerback -0.459682 4.66754 1.90033
upperback -3.30019 6.2521 -0.305014
thorax -2.90018 3.06943 -1.48679
lowerneck -10.8882 -2.44534 -2.66197
upperneck 14.6113 -3.87062 6.16534
head 6.40586 -1.52468 2.06709
rclavicle 8.01786e-014 -7.95139e-016
rhumerus -28.3998 6.09839 -84.4366
rradius 65.2293
rwrist -4.78764
rhand -27.5143 -38.4728
rfingers 7.12502
rthumb -0.916776 -68.4506
lclavicle 8.01786e-014 -7.95139e-016
lhumerus -59.2095 22.7489 55.6808
lradius 4.53263
lwrist -29.2215
lhand -25.9917 -11.7926
lfingers 7.12502
lthumb 0.55378 18.1864
rfemur 3.67606 4.3725 24.7973
rtibia 41.5762
rfoot 20.6526 5.34684
rtoes -3.98129
lfemur -41.9443 1.80982 -17.3241
ltibia 35.354
lfoot -4.01046 2.93269
ltoes -8.19102
83
root 8.22189 15.4499 -19.6942 7.31363 -7.03172 -3.37676
lowerback -0.294942 4.60111 1.57937
upperback -3.0083 6.15471 -0.479652
thorax -2.70809 3.0307 -1.48655
lowerneck -11.1426 -2.36275 -2.38642
upperneck 14.3666 -3.78743 6.14679
head 6.36347 -1.47034 2.02015
rclavicle 1.69775e-014 6.36111e-015
rhumerus -29.1975 5.57854 -84.608
rradius 65.3125
rwrist -5.48776
rhand -26.4877 -37.8277
rfingers 7.12502
rthumb 0.0747401 -67.8075
lclavicle 1.69775e-014 6.36111e-015
lhumerus -58.2647 23.3911 55.8437
lradius 4.77121
lwrist -29.1144
lhand -25.7281 -11.6535
lfingers 7.12502
lthumb 0.808344 18.3248
rfemur 2.04636 4.58932 24.2395
rtibia 45.3519
rfoot 23.4902 2.43433
rtoes 1.60664
lfemur -41.1291 1.7758 -18.0368
ltibia 36.2002
lfoot -4.68129 2.58781
ltoes -8.23274
